<?xml version="1.0" encoding="UTF-8"?>
<svg id="_Слой_1" data-name="Слой 1" xmlns="http://www.w3.org/2000/svg" viewBox="0 0 297 210">
  <defs>
    <style>
      .cls-1 {
        fill: #fff;
      }

      .cls-1, .cls-2, .cls-3, .cls-4, .cls-5 {
        stroke-width: 0px;
      }

      .cls-2 {
        fill: #e3c5c1;
      }

      .cls-3 {
        fill: #595050;
      }

      .cls-4 {
        fill: #a6a5c2;
      }

      .cls-5 {
        fill: #bcbcd1;
      }
    </style>
  </defs>
  <path class="cls-5" d="m202.16,115.3c1.83-8.35,11.44-8.44,15.94-15.94,3.51-5.85,1.33-13.55-3.19-28.7-6.34-21.29-12.33-26.01-9.57-35.07,2.04-6.67,7.74-12.16,14.35-14.35,7.71-2.55,17.16-.77,22.32,4.78,5.17,5.56,1.64,10.19,7.97,23.91,2.92,6.32,5.87,10.12,4.78,11.16-1.13,1.08-6.03-1.32-9.57-4.78-8.39-8.21-4.54-17.94-11.16-22.32-4.62-3.06-12.51-2.28-15.94,1.59-2.74,3.09-1.73,7.11,3.19,28.7,3.11,13.62,4.33,19.12,4.78,27.1.47,8.27.67,12.55-1.59,17.54-4.61,10.18-16.61,17.07-20.73,14.35-2.14-1.42-2.15-5.44-1.59-7.97Z"/>
  <path class="cls-4" d="m210.13,120.08c.52,21.61-14.83,43.23-33.48,51.02-7.35,3.07-16.59,3.11-35.07,3.19-19.36.08-29.04.13-36.67-3.19-16.12-7.01-28.11-23.29-31.15-40.38-.91-5.12-.8-9.12-.73-10.63.83-18.01,11.3-31.72,20.73-41.45,8.27-8.54,15.95-12.1,20.73-23.91,2.54-6.29,2.23-9.87,6.38-15.94,2.43-3.55,8.22-12.01,17.54-12.75,9.07-.72,15.96,6.32,19.13,9.57,5.32,5.44,6.48,9.97,9.57,15.94,6.6,12.76,13.33,15.29,22.32,25.51,6.2,7.05,20.24,23,20.73,43.05Z"/>
  <path class="cls-5" d="m127.22,148.78c-2.25,2.3,1.57,6.36,1.59,15.94,0,2.39.03,12.04-4.78,14.35-1.98.95-3.79.18-4.78,1.59-1.14,1.62-.22,4.73,1.59,6.38,2.59,2.34,6.93,1.64,9.57,0,2.77-1.73,3.7-4.53,4.78-7.97,1.89-6,.69-7.86,1.59-17.54.67-7.21,1.62-9.12,0-11.16-2.23-2.81-7.57-3.63-9.57-1.59Z"/>
  <path class="cls-5" d="m156.31,148.78c2.25,2.3-1.57,6.36-1.59,15.94,0,2.39-.03,12.04,4.78,14.35,1.98.95,3.79.18,4.78,1.59,1.14,1.62.22,4.73-1.59,6.38-2.59,2.34-6.93,1.64-9.57,0-2.77-1.73-3.7-4.53-4.78-7.97-1.89-6-.69-7.86-1.59-17.54-.67-7.21-1.62-9.12,0-11.16,2.23-2.81,7.57-3.63,9.57-1.59Z"/>
  <path class="cls-4" d="m88.96,164.72c.99,2.63,2.09,5.46,4.78,7.97,3.05,2.86,6.61,3.87,6.38,4.78-.29,1.1-5.59-.15-6.38,1.59-.57,1.26,1.4,3.63,3.19,4.78,4.73,3.06,13.02.87,17.54-3.19,8.83-7.92,7.49-26.8-1.59-38.26-6.77-8.54-19.55-15.12-25.51-11.16-8.82,5.86,1.14,32.26,1.59,33.48Z"/>
  <path class="cls-4" d="m194.92,164.72c-.99,2.63-2.09,5.46-4.78,7.97-3.05,2.86-6.61,3.87-6.38,4.78.29,1.1,5.59-.15,6.38,1.59.57,1.26-1.4,3.63-3.19,4.78-4.73,3.06-13.02.87-17.54-3.19-8.83-7.92-7.49-26.8,1.59-38.26,6.77-8.54,19.55-15.12,25.51-11.16,8.82,5.86-1.14,32.26-1.59,33.48Z"/>
  <path class="cls-4" d="m146.36,29.21c.13-3.82,3.09-6.54,6.38-9.57,4.88-4.49,9.9-5.72,12.75-6.38,2.22-.51,5.57-1.29,6.38,0,.33.53.38,1.63-3.19,6.38-4.95,6.58-6.64,6.59-7.97,9.57-2.72,6.08,1.97,11.3,0,12.75-2.65,1.95-14.62-4.86-14.35-12.75Z"/>
  <path class="cls-4" d="m133.74,30.8c-.13-3.82-3.09-6.54-6.38-9.57-4.88-4.49-9.9-5.72-12.75-6.38-2.22-.51-5.57-1.29-6.38,0-.33.53-.38,1.63,3.19,6.38,4.95,6.58,6.64,6.59,7.97,9.57,2.72,6.08-1.97,11.3,0,12.75,2.65,1.95,14.62-4.86,14.35-12.75Z"/>
  <path class="cls-5" d="m125.63,150.37c-2.62-1.14-7.25-3.22-11.16-7.97-5.23-6.36-5.85-13.46-6.38-20.73-.66-9.04-1.24-17.02,3.19-25.51,4.56-8.74,14.58-18.3,28.7-19.13,13.93-.82,26.25,7.2,31.89,17.54,4.64,8.51,3.85,16.91,3.19,23.91-.54,5.74-1.48,14.42-7.97,22.32-1.28,1.56-4.42,5.08-9.57,7.97-.77.43-15.86,8.58-31.89,1.59Z"/>
  <circle class="cls-5" cx="146.36" cy="40.37" r="3.19"/>
  <circle class="cls-5" cx="133.6" cy="40.37" r="3.19"/>
  <path class="cls-5" d="m133.6,37.18h0c-1.24.82-1.87,2.1-1.59,3.19.17.68.78,1.6,1.59,1.59.86,0,1.41-1.03,1.59-1.59.22-.7.08-1.32,0-1.59"/>
  <path class="cls-3" d="m133.6,38.77c-.84,0-1.42.94-1.59,1.59-.38,1.41.65,3.19,1.59,3.19s1.98-1.77,1.59-3.19c-.18-.66-.76-1.59-1.59-1.59Z"/>
  <path class="cls-3" d="m146.36,38.77c-.84,0-1.42.94-1.59,1.59-.38,1.41.65,3.19,1.59,3.19s1.98-1.77,1.59-3.19c-.18-.66-.76-1.59-1.59-1.59Z"/>
  <circle class="cls-1" cx="134.4" cy="39.57" r=".8"/>
  <circle class="cls-1" cx="147.15" cy="39.57" r=".8"/>
  <path class="cls-2" d="m139.98,45.15c1.18,0,1.22-.1,1.59,0,1.04.28,1.76,1.34,1.59,1.59-.17.26-1.21-.4-1.59,0-.29.3.16.81,0,1.59-.15.73-.81,1.59-1.59,1.59s-1.44-.87-1.59-1.59c-.16-.78.29-1.29,0-1.59-.39-.4-1.43.26-1.59,0-.17-.25.56-1.32,1.59-1.59.37-.1.42,0,1.59,0Z"/>
</svg>