<?xml version="1.0" encoding="UTF-8"?>
<svg id="_Слой_1" data-name="Слой 1" xmlns="http://www.w3.org/2000/svg" viewBox="0 0 297 210">
  <defs>
    <style>
      .cls-1 {
        fill: #575850;
      }

      .cls-1, .cls-2, .cls-3, .cls-4, .cls-5, .cls-6, .cls-7, .cls-8, .cls-9, .cls-10, .cls-11, .cls-12, .cls-13, .cls-14, .cls-15, .cls-16, .cls-17, .cls-18, .cls-19, .cls-20, .cls-21, .cls-22, .cls-23, .cls-24, .cls-25, .cls-26, .cls-27 {
        stroke-width: 0px;
      }

      .cls-2 {
        fill: #efefec;
      }

      .cls-3 {
        fill: #fcd0c3;
      }

      .cls-4 {
        fill: #bb9ec9;
      }

      .cls-5 {
        fill: #f9f3f3;
      }

      .cls-6 {
        fill: #818273;
      }

      .cls-7 {
        fill: #ddcfe4;
      }

      .cls-8 {
        fill: #fef3f0;
      }

      .cls-9 {
        fill: #cde0e0;
      }

      .cls-10 {
        fill: #b4b3a7;
      }

      .cls-11 {
        fill: #e0dfd9;
      }

      .cls-12 {
        fill: #fff;
      }

      .cls-13 {
        fill: #eedcda;
      }

      .cls-14 {
        fill: #eee7f2;
      }

      .cls-15 {
        fill: #231f27;
      }

      .cls-16 {
        fill: #c4c0d5;
      }

      .cls-17 {
        fill: #a986bc;
      }

      .cls-18 {
        fill: #e3c5c1;
      }

      .cls-19 {
        fill: #ccb6d7;
      }

      .cls-20 {
        fill: #8f8c57;
      }

      .cls-21 {
        fill: #595050;
      }

      .cls-22 {
        fill: #a6a5c2;
      }

      .cls-23 {
        fill: #7f658d;
      }

      .cls-24 {
        fill: #b1c6bc;
      }

      .cls-25 {
        fill: #bcbcd1;
      }

      .cls-26 {
        fill: #f4e8e6;
      }

      .cls-27 {
        fill: #acad9f;
      }
    </style>
  </defs>
  <g>
    <g>
      <path class="cls-24" d="m87.54,9.88c-1.1,3.68-5,3.55-10.37,7.75-3.36,2.62-8.06,7.54-6.92,10.57.04.1.49,1.24,1.38,1.41,1.98.37,3.27-4.6,6.92-9.16,5.73-7.16,12.64-7.52,12.45-11.27-.1-1.93-2.02-3.77-2.77-3.52-.7.23-.09,2.19-.69,4.23Z"/>
      <path class="cls-9" d="m76.47,43.71c-3.23,8.18-12.4,20.43-26.62,20.43s-26.62-9.15-26.62-20.43,16.11-19.02,26.62-20.43c1.83-.25,12.8-2.19,21.98,3.7,4.72,3.03,5.78,6.06,6.03,6.86.26.82.9,4.06-1.38,9.86Z"/>
      <ellipse class="cls-24" cx="32.91" cy="28.56" rx="15.91" ry="13.04"/>
      <path class="cls-9" d="m34.98,59.21c-1.65,1.5,1.17,6.05-.69,7.75-.68.63-1.54.45-2.07,1.41-.35.63-.49,1.63,0,2.11.58.57,1.73.13,2.07,0,.97-.37,1.9-1.17,2.77-2.82,1.29-2.46,2.59-7.09.69-8.46-.74-.53-2.06-.64-2.77,0Z"/>
      <path class="cls-9" d="m40.8,60.66c-1.8,1.64,1.28,6.61-.76,8.48-.75.68-1.69.49-2.27,1.54-.38.69-.54,1.78,0,2.31.63.63,1.89.15,2.27,0,1.06-.4,2.08-1.27,3.02-3.08,1.41-2.69,2.83-7.75.76-9.25-.81-.58-2.25-.7-3.02,0Z"/>
      <path class="cls-9" d="m62.64,52.16c-.69,4.14,2.74,8.14,5.53,8.46,1.46.16,2.49-.71,3.46,0,1.03.76,1.21,2.74.69,4.23-.89,2.55-3.64,2.98-3.46,4.23.13.86,1.6,1.63,2.77,1.41,2.38-.46,3.21-4.99,3.46-6.34.38-2.06.27-3.61,0-6.34-.7-7.08-1.07-10.64-2.07-11.27-2.67-1.69-9.51.42-10.37,5.64Z"/>
      <path class="cls-9" d="m52.27,50.05c-.69,4.14,2.74,8.14,5.53,8.46,1.46.16,2.49-.71,3.46,0,1.03.76,1.21,2.74.69,4.23-.89,2.55-3.64,2.98-3.46,4.23.13.86,1.6,1.63,2.77,1.41,2.38-.46,3.21-4.99,3.46-6.34.38-2.06.27-3.61,0-6.34-.7-7.08-1.07-10.64-2.07-11.27-2.67-1.69-9.51.42-10.37,5.64Z"/>
      <path class="cls-24" d="m37.06,19.04c-1.02-2.62,2.64-6.59,6.22-7.75.28-.09,2.25-.73,2.77,0,.5.69-.91,1.85-1.38,4.23-.53,2.64.84,3.74,0,4.93-.92,1.3-3.35,1.2-4.84.7-.61-.21-2.24-.75-2.77-2.11Z"/>
      <path class="cls-24" d="m28.6,18.53c.89-2.09-2.24-5.44-5.16-6.37-.23-.07-1.86-.6-2.29,0-.41.57.75,1.52,1.15,3.47.45,2.25-.63,3.21,0,4.05,1.03,1.37,5.45.85,6.3-1.16Z"/>
      <path class="cls-20" d="m24.61,26.8c-.1-1.02,1.37-2.31,2.77-2.11,1.5.21,2.05,2.01,2.07,2.11.11.4.28.97,0,1.41-.53.83-2.32.6-3.46,0-.47-.25-1.31-.69-1.38-1.41Z"/>
      <path class="cls-20" d="m37.9,26.8c.1-1.02-1.37-2.31-2.77-2.11-1.5.21-2.05,2.01-2.07,2.11-.11.4-.28.97,0,1.41.53.83,2.32.6,3.46,0,.47-.25,1.31-.69,1.38-1.41Z"/>
      <path class="cls-18" d="m30.83,29.61c.88,0,1.13-.21,1.38,0,.39.32.33,1.23,0,1.41-.23.13-.54-.15-.69,0-.12.13.07.36,0,.7-.06.32-.35.7-.69.7-.37,0-.61-.45-.69-.7-.11-.34.12-.58,0-.7-.15-.15-.46.13-.69,0-.33-.18-.39-1.09,0-1.41.26-.21.5,0,1.38,0Z"/>
      <path class="cls-15" d="m27.37,25.39c-.3-.02-.58.41-.69.7-.34.9.25,2.12.69,2.11.35,0,.69-.77.69-1.41,0-.62-.3-1.39-.69-1.41Z"/>
      <path class="cls-15" d="m34.88,25.39c.3-.02.58.41.69.7.34.9-.25,2.12-.69,2.11-.35,0-.69-.77-.69-1.41,0-.62.3-1.39.69-1.41Z"/>
      <path class="cls-10" d="m40.51,16.93c.38-1.39,1.03-2.32,1.38-2.82,1.25-1.75,3.09-3.13,3.46-2.82.36.3-1.24,1.72-1.38,4.23-.14,2.47,1.29,3.33.69,4.93-.55,1.48-2.43,2.57-3.46,2.11-1.33-.59-1.2-3.76-.69-5.64Z"/>
      <ellipse class="cls-12" cx="28.06" cy="26.8" rx=".69" ry=".7"/>
      <ellipse class="cls-12" cx="35.67" cy="26.8" rx=".69" ry=".7"/>
      <path class="cls-12" d="m34.29,31.02c0-.12,2.38-.97,4.84,0,.41.16,1.77.72,2.77,2.11.44.61.78,1.35.69,1.41-.14.1-1.03-1.75-2.77-2.82-2.54-1.56-5.52-.58-5.53-.7Z"/>
      <path class="cls-12" d="m19.76,33.38c-.08-.08,1.22-2.29,3.72-3.15.42-.14,1.81-.6,3.45-.18.72.19,1.44.53,1.42.63-.05.17-1.9-.67-3.9-.36-2.94.46-4.61,3.16-4.69,3.06Z"/>
      <path class="cls-12" d="m34.98,31.73c.03-.15,1.82-.25,3.46.7,1.35.78,2.16,2.01,2.07,2.11-.07.08-.75-.65-2.07-1.41-1.97-1.14-3.49-1.27-3.46-1.41Z"/>
      <path class="cls-12" d="m27.38,31.73c-.03-.15-1.82-.25-3.46.7-1.35.78-2.16,2.01-2.07,2.11.07.08.75-.65,2.07-1.41,1.97-1.14,3.49-1.27,3.46-1.41Z"/>
      <path class="cls-12" d="m34.29,32.43c.06-.11,1.95.52,3.46,2.11.91.97,1.46,2.05,1.38,2.11-.08.06-.76-.91-2.07-2.11-1.62-1.48-2.82-2.03-2.77-2.11Z"/>
      <path class="cls-12" d="m27.37,32.43c-.03-.1-1.96.04-3.46,1.41-1,.91-1.46,2.06-1.38,2.11.08.06.7-1.08,2.07-2.11,1.48-1.12,2.79-1.33,2.77-1.41Z"/>
      <path class="cls-12" d="m37.06,23.98c-.15-.09.78-3.37,3.46-4.93.95-.55,2.01-.84,2.07-.7.08.16-1.3.79-2.77,2.11-2.03,1.83-2.65,3.59-2.77,3.52Z"/>
      <path class="cls-12" d="m37.75,23.98s.41-.69.99-1.32c.73-.79,1.42-1.27,1.77-1.5.64-.41,1.35-.75,1.38-.7.04.07-1.28.73-2.77,2.11-.83.77-1.35,1.44-1.38,1.41Z"/>
      <path class="cls-12" d="m38.44,23.98c-.12-.18,1.04-1.53,2.77-2.11,1.71-.58,3.45-.2,3.46,0,0,.16-1.01.16-2.77.7-2.24.7-3.35,1.57-3.46,1.41Z"/>
      <path class="cls-12" d="m27.37,23.27s.03-.08.04-.1c.34-2.49-.73-4.12-.73-4.12-1.05-1.6-2.72-2.19-2.77-2.11-.06.08,1.88.83,2.77,2.82.69,1.56.58,3.53.69,3.52Z"/>
      <path class="cls-12" d="m28.06,23.27c-.24-.04.54-2.72-.69-5.64-.37-.87-.75-1.37-.69-1.41.1-.07,1.72,1.42,2.07,3.52.32,1.89-.5,3.55-.69,3.52Z"/>
      <path class="cls-12" d="m26.68,23.27s-.04-.33-.06-.41c-.34-1.14-.78-2.64-2.01-3.12-.63-.24-1.34-.17-1.38,0-.06.22,1.08.39,2.07,1.41.93.95,1.29,2.16,1.38,2.11Z"/>
      <path class="cls-11" d="m58.49,35.96c-2.29,1.25-3.58.22-4.84,1.41-1.27,1.2-1.65,3.85-.69,5.64,1.59,2.98,5.87,1.69,7.61,4.93.87,1.62.33,2.94,1.38,3.52,1.12.62,3.05-.15,4.15-1.41,1.57-1.81.54-3.62,2.07-4.93,1.16-1,2.12-.27,3.46-1.41,1.1-.94,1.9-2.67,1.38-3.52-.82-1.35-4.63-.05-4.84-.7-.24-.77,4.99-2.43,4.84-4.23-.1-1.21-2.51-1.03-4.84-3.52-1.76-1.88-1.78-3.49-2.77-3.52-.93-.03-1.24,1.39-3.46,4.23-1.49,1.9-2.23,2.85-3.46,3.52Z"/>
      <path class="cls-11" d="m55.04,28.2c.29.87.62,1.88,1.38,2.11.32.1.78.08,3.46-2.11,1.76-1.44,2.18-1.94,2.07-2.11-.11-.19-.73.22-1.38,0-.87-.29-.64-1.46-1.38-2.11-.96-.84-3.21-.63-4.15.7-.79,1.12-.32,2.55,0,3.52Z"/>
      <path class="cls-11" d="m43.28,27.5c.38-1.06,1.81-1.91,2.77-1.41.92.48.91,1.98.69,2.82-.28,1.05-1.2,2.26-2.07,2.11-.97-.16-1.34-1.9-1.38-2.11-.09-.41-.19-.89,0-1.41Z"/>
      <ellipse class="cls-11" cx="45.35" cy="33.14" rx=".69" ry=".7"/>
      <path class="cls-27" d="m48.12,42.3c5.02.13,6.53-1.96,8.3-.7,1.51,1.07,2.03,3.74,1.38,5.64-.95,2.76-4.06,2.94-4.15,4.93-.1,2.04,3.13,3.13,2.77,4.23-.33,1-3.46,1.43-5.53,0-1.99-1.38-2.8-4.33-2.07-6.34.51-1.43,1.62-1.92,1.38-2.82-.23-.89-1.6-1.52-2.77-1.41-1.66.16-1.87,1.72-3.46,2.11-2.04.51-4.86-1.26-4.84-2.82.02-1.66,3.23-2.74,3.46-2.82,2-.66,2.96-.07,5.53,0Z"/>
    </g>
    <path class="cls-3" d="m65,40c-.14,0-1.4-.02-2-1-.39-.64-.48-1.66,0-2,.28-.2.72-.13,1,0,.64.3.66,1,1,1s.36-.7,1-1c.28-.13.72-.2,1,0,.48.34.39,1.36,0,2-.6.98-1.86,1-2,1Z"/>
  </g>
  <g>
    <g>
      <path class="cls-25" d="m261.96,44.52c.69-3.17,4.34-3.2,6.05-6.05,1.33-2.22.5-5.14-1.21-10.88-2.41-8.07-4.68-9.86-3.63-13.3.77-2.53,2.93-4.61,5.44-5.44,2.92-.97,6.51-.29,8.46,1.81,1.96,2.11.62,3.87,3.02,9.07,1.11,2.4,2.23,3.84,1.81,4.23-.43.41-2.29-.5-3.63-1.81-3.18-3.11-1.72-6.8-4.23-8.46-1.75-1.16-4.74-.87-6.05.6-1.04,1.17-.66,2.7,1.21,10.88,1.18,5.17,1.64,7.25,1.81,10.28.18,3.14.25,4.76-.6,6.65-1.75,3.86-6.3,6.47-7.86,5.44-.81-.54-.81-2.06-.6-3.02Z"/>
      <path class="cls-22" d="m264.98,46.33c.2,8.2-5.62,16.39-12.7,19.35-2.79,1.16-6.29,1.18-13.3,1.21-7.34.03-11.01.05-13.91-1.21-6.11-2.66-10.66-8.83-11.81-15.31-.35-1.94-.3-3.46-.28-4.03.31-6.83,4.29-12.03,7.86-15.72,3.14-3.24,6.05-4.59,7.86-9.07.96-2.38.84-3.74,2.42-6.05.92-1.35,3.12-4.56,6.65-4.84,3.44-.27,6.05,2.4,7.26,3.63,2.02,2.06,2.46,3.78,3.63,6.05,2.5,4.84,5.06,5.8,8.46,9.67,2.35,2.67,7.68,8.72,7.86,16.32Z"/>
      <path class="cls-25" d="m233.54,57.22c-.85.87.59,2.41.6,6.05,0,.9.01,4.57-1.81,5.44-.75.36-1.44.07-1.81.6-.43.62-.08,1.79.6,2.42.98.89,2.63.62,3.63,0,1.05-.66,1.4-1.72,1.81-3.02.72-2.27.26-2.98.6-6.65.26-2.73.61-3.46,0-4.23-.84-1.06-2.87-1.38-3.63-.6Z"/>
      <path class="cls-25" d="m244.58,57.22c.85.87-.59,2.41-.6,6.05,0,.9-.01,4.57,1.81,5.44.75.36,1.44.07,1.81.6.43.62.08,1.79-.6,2.42-.98.89-2.63.62-3.63,0-1.05-.66-1.4-1.72-1.81-3.02-.72-2.27-.26-2.98-.6-6.65-.26-2.73-.61-3.46,0-4.23.84-1.06,2.87-1.38,3.63-.6Z"/>
      <path class="cls-22" d="m219.03,63.26c.38,1,.79,2.07,1.81,3.02,1.16,1.08,2.51,1.47,2.42,1.81-.11.42-2.12-.06-2.42.6-.22.48.53,1.38,1.21,1.81,1.79,1.16,4.94.33,6.65-1.21,3.35-3,2.84-10.16-.6-14.51-2.57-3.24-7.41-5.73-9.67-4.23-3.35,2.22.43,12.24.6,12.7Z"/>
      <path class="cls-22" d="m259.22,63.26c-.38,1-.79,2.07-1.81,3.02-1.16,1.08-2.51,1.47-2.42,1.81.11.42,2.12-.06,2.42.6.22.48-.53,1.38-1.21,1.81-1.79,1.16-4.94.33-6.65-1.21-3.35-3-2.84-10.16.6-14.51,2.57-3.24,7.41-5.73,9.67-4.23,3.35,2.22-.43,12.24-.6,12.7Z"/>
      <path class="cls-22" d="m240.8,11.87c.05-1.45,1.17-2.48,2.42-3.63,1.85-1.7,3.76-2.17,4.84-2.42.84-.19,2.11-.49,2.42,0,.13.2.14.62-1.21,2.42-1.88,2.5-2.52,2.5-3.02,3.63-1.03,2.3.75,4.29,0,4.84-1,.74-5.55-1.84-5.44-4.84Z"/>
      <path class="cls-22" d="m236.02,12.48c-.05-1.45-1.17-2.48-2.42-3.63-1.85-1.7-3.76-2.17-4.84-2.42-.84-.19-2.11-.49-2.42,0-.13.2-.14.62,1.21,2.42,1.88,2.5,2.52,2.5,3.02,3.63,1.03,2.3-.75,4.29,0,4.84,1,.74,5.55-1.84,5.44-4.84Z"/>
      <path class="cls-25" d="m232.94,57.82c-1-.43-2.75-1.22-4.23-3.02-1.98-2.41-2.22-5.1-2.42-7.86-.25-3.43-.47-6.46,1.21-9.67,1.73-3.31,5.53-6.94,10.88-7.26,5.28-.31,9.95,2.73,12.09,6.65,1.76,3.23,1.46,6.41,1.21,9.07-.21,2.18-.56,5.47-3.02,8.46-.49.59-1.68,1.93-3.63,3.02-.29.16-6.01,3.25-12.09.6Z"/>
      <circle class="cls-25" cx="240.8" cy="16.1" r="1.21"/>
      <circle class="cls-25" cx="235.96" cy="16.1" r="1.21"/>
      <path class="cls-25" d="m235.96,14.89h0c-.47.31-.71.8-.6,1.21.07.26.3.61.6.6.33,0,.54-.39.6-.6.09-.27.03-.5,0-.6"/>
      <path class="cls-21" d="m235.96,15.5c-.32,0-.54.36-.6.6-.14.54.25,1.21.6,1.21s.75-.67.6-1.21c-.07-.25-.29-.6-.6-.6Z"/>
      <path class="cls-21" d="m240.8,15.5c-.32,0-.54.36-.6.6-.14.54.25,1.21.6,1.21s.75-.67.6-1.21c-.07-.25-.29-.6-.6-.6Z"/>
      <circle class="cls-12" cx="236.27" cy="15.8" r=".3"/>
      <circle class="cls-12" cx="241.1" cy="15.8" r=".3"/>
      <path class="cls-18" d="m238.38,17.92c.45,0,.46-.04.6,0,.39.1.67.51.6.6-.06.1-.46-.15-.6,0-.11.11.06.31,0,.6-.06.28-.31.6-.6.6s-.55-.33-.6-.6c-.06-.3.11-.49,0-.6-.15-.15-.54.1-.6,0-.06-.1.21-.5.6-.6.14-.04.16,0,.6,0Z"/>
    </g>
    <path class="cls-18" d="m240,48c-3.07.08-5.17-2.19-6-4-.15-.33-1.46-3.27,0-5,.07-.08.89-1.03,2-1,1.46.03,2.8,1.73,3,2,.42.54.62,1,1,1,.33,0,.51-.35,1-1,.79-1.04,1.28-1.69,2-2,.54-.23,1.37-.33,2,0,1.39.73,1.45,3.35,1,5-.6,2.22-2.72,4.92-6,5Z"/>
  </g>
  <g>
    <path class="cls-19" d="m107,142c1.33,12.08,2.9,26.22-6,33-5.81,4.43-13.52,3.32-15.5,3-13.37-2.16-18.96-15.64-19.5-17-1.7-4.29-1.82-7.92-2-13-.17-4.91.39-6.24,2-18,1.89-13.84,1.79-16.97,5-20,2.81-2.65,6.44-3.61,8-4,0,0,5.65-1.47,11,0,13.29,3.66,16.48,31.27,17,36Z"/>
    <path class="cls-19" d="m97,99c.22,1.3,1.04,6.21-2,10-3.44,4.29-9.4,4.1-12.5,4-2.95-.1-9.08-.29-12.5-5-2.67-3.68-2.13-7.99-2-9,.78-6.19,6.13-14,14.5-14,8.56,0,13.53,8.18,14.5,14Z"/>
    <path class="cls-19" d="m87,87c-.36-1.1,1.19-2.35,2-3,.8-.64,1.82-1.2,2-1,.17.19-.68.79-1,2-.42,1.57.49,2.5,0,3-.58.59-2.64.08-3-1Z"/>
    <path class="cls-19" d="m77.97,87c.36-1.1-1.19-2.35-2-3-.8-.64-1.82-1.2-2-1-.17.19.68.79,1,2,.42,1.57-.49,2.5,0,3,.58.59,2.64.08,3-1Z"/>
    <path class="cls-19" d="m94,112c-.4-3.09,2.44-4.02,4-8,2.51-6.39-1.37-12.74,1-14,.6-.32,1.44-.23,2,0,1.08.44,1.63,1.64,2,3,1.41,5.27,0,11,0,11-.69,2.81-2.98,12.08-6,12-1.42-.04-2.76-2.14-3-4Z"/>
    <path class="cls-19" d="m72.59,113c.4-3.09-2.44-4.02-4-8-2.51-6.39,1.37-12.74-1-14-.6-.32-1.44-.23-2,0-1.08.44-1.63,1.64-2,3-1.41,5.27,0,11,0,11,.69,2.81,2.98,12.08,6,12,1.42-.04,2.76-2.14,3-4Z"/>
    <path class="cls-19" d="m87,173c1.61,5.89,1.19,10.41,1,12-.37,3.12-1.02,4.72-2,6-.35.46-1.79,2.34-3,2-.59-.16-.91-.79-1-1-.87-1.98,1.8-3.77,2-7,.07-1.17-.28-2.13-1-4-2.47-6.44-5.69-7.91-5-10,.69-2.09,4.79-3.37,7-2,.56.35,1.17.97,2,4Z"/>
    <path class="cls-19" d="m90.02,173.04c-1.57,1.63.13,4.16,1.04,10.36.79,5.42.2,8.37,2.07,9.32.62.32,1.55.43,2.07,0,.8-.65.23-2.19,0-4.14-.29-2.53.15-4.45,1.04-8.29.9-3.92,1.77-4.87,1.04-6.22-.77-1.4-2.65-2.07-4.14-2.07-.44,0-2.11,0-3.11,1.04Z"/>
    <path class="cls-19" d="m102,166c3.21.33,3.04,6.79,7,8,2.46.75,3.35-1.48,8-2,1.04-.12,7.61-.74,10,3,1,1.56,1.52,4.29,0,6-1.23,1.38-3.5,1.77-5,1-1.75-.91-1.3-2.83-3-4-1.49-1.03-3.05-.38-6,0-3.29.42-7.73.98-11-1-2.6-1.58-5.08-5.14-4-8,.58-1.53,2.3-3.18,4-3Z"/>
    <path class="cls-7" d="m84,160c-7.69.25-12.11-8.28-13-10-.8-1.55-4.89-9.43-1-14,2.43-2.85,7.47-3.83,10-2,2.19,1.59,2.19,5.07,3,5,.77-.07.27-3.16,2-5,2.11-2.24,7.14-2.2,10,0,4.42,3.41,3,11.53,1,16-.47,1.05-4.36,9.75-12,10Z"/>
    <circle class="cls-8" cx="78.5" cy="93.5" r="3.5"/>
    <circle class="cls-8" cx="86.5" cy="93.5" r="3.5"/>
    <circle class="cls-23" cx="78" cy="93" r="3"/>
    <circle class="cls-23" cx="86" cy="93" r="3"/>
    <circle class="cls-2" cx="79" cy="93" r="1"/>
    <circle class="cls-2" cx="87" cy="93" r="1"/>
    <path class="cls-17" d="m82,98c-.74,0-.77-.06-1,0-.65.17-1.1.84-1,1,.11.16.76-.25,1,0,.18.19-.1.51,0,1,.09.46.51,1,1,1s.91-.54,1-1c.1-.49-.18-.81,0-1,.24-.25.89.16,1,0,.1-.16-.35-.83-1-1-.23-.06-.26,0-1,0Z"/>
  </g>
  <g>
    <g>
      <path class="cls-6" d="m174.03,67.59c.55,4.34.82,6.51,0,8.94-3.39,10.01-18.62,12.04-21.28,12.33-4.63.52-15.03,1.69-20.04-4.93-4.1-5.41-2.16-12.79-1.23-16.34,2.54-9.71,10.56-19.14,21.28-21.28,2.65-.53,7.97-1.59,12.64,1.23,6.6,3.98,7.77,13.21,8.63,20.04Z"/>
      <path class="cls-6" d="m171.56,43.85c0,1.55.02,3.84-1.23,6.17-3.16,5.86-11.23,6.16-11.72,6.17-4.6.1-10.43-1.93-12.95-6.78-1.36-2.62-1.28-5.14-1.23-6.17.07-1.54.55-6.17,4.32-9.25,3.22-2.63,6.9-2.54,9.87-2.47,3.07.08,6.98.17,9.87,3.08,3.05,3.07,3.07,7.38,3.08,9.25Z"/>
      <path class="cls-6" d="m161.69,33.36c-.63-2.01,1.83-4.71,4.32-4.93,2.3-.21,4.51,1.71,4.32,2.47-.15.58-1.64.18-2.47,1.23-.86,1.09.05,2.37-.62,3.08-.99,1.05-4.89.26-5.55-1.85Z"/>
      <path class="cls-6" d="m161.69,33.36c-.63-2.01,1.83-4.71,4.32-4.93,2.3-.21,4.51,1.71,4.32,2.47-.15.58-1.64.18-2.47,1.23-.86,1.09.05,2.37-.62,3.08-.99,1.05-4.89.26-5.55-1.85Z"/>
      <path class="cls-6" d="m161.69,33.36c-.63-2.01,1.83-4.71,4.32-4.93,2.3-.21,4.51,1.71,4.32,2.47-.15.58-1.64.18-2.47,1.23-.86,1.09.05,2.37-.62,3.08-.99,1.05-4.89.26-5.55-1.85Z"/>
      <path class="cls-6" d="m154.21,33.36c.63-2.01-1.83-4.71-4.32-4.93-2.3-.21-4.51,1.71-4.32,2.47.15.58,1.64.18,2.47,1.23.86,1.09-.05,2.37.62,3.08.99,1.05,4.89.26,5.55-1.85Z"/>
      <path class="cls-6" d="m132.09,76.53c-3.86-3.59-7.09-3.14-8.63-4.93-2.58-3.01.6-11.14,4.93-16.65,5.75-7.3,10.98-6.75,13.57-13.57.48-1.26,2.16-5.69,0-9.25-1.98-3.27-6.05-3.91-8.63-4.32-1.64-.26-8.37-1.32-13.57,3.08-4.76,4.04-5.82,10.62-4.93,11.1,1,.55,3.78-7.17,10.48-8.63,3.73-.82,9.39.15,10.48,3.7.17.56.53,2.33-4.93,8.63-5.51,6.36-7.19,6.07-9.87,9.87-2.62,3.71-6.27,11.41-3.08,16.65,1.99,3.27,5.99,4.52,9.25,5.55,2.15.68,5.78,1.47,6.17.62.11-.25-.01-.71-1.23-1.85Z"/>
      <path class="cls-6" d="m138.88,86.4c-.7.91-1.28,2.52-.62,3.7.36.64,1.09,1.17,7.4,1.85,4.35.47,4.22.24,5.55.62,2.66.76,3.95,1.89,4.93,1.23.7-.47.96-1.65.62-2.47-.23-.56-.9-1.32-4.93-1.85-4.92-.65-7.29.04-8.02-1.23-.61-1.08.68-2.3,0-3.08-.78-.91-3.58-.52-4.93,1.23Z"/>
      <path class="cls-6" d="m159.23,83.32c-1.16,1.97-1.24,4.69,0,6.78.34.58,1.31,2.21,3.08,2.47,1.16.17,2.78-.24,3.08-1.23.28-.92-.65-1.98-1.23-2.47-1.1-.91-1.87-.47-2.47-1.23-.57-.73-.37-1.78,0-3.7.4-2.07.9-2.88.62-3.08-.4-.3-2.12.83-3.08,2.47Z"/>
      <path class="cls-6" d="m165.3,81.2c-1.04,1.76-1.11,4.19,0,6.05.31.51,1.17,1.97,2.75,2.2,1.04.15,2.48-.21,2.75-1.1.25-.82-.58-1.77-1.1-2.2-.99-.81-1.67-.42-2.2-1.1-.51-.65-.33-1.59,0-3.3.35-1.85.8-2.57.55-2.75-.36-.26-1.89.74-2.75,2.2Z"/>
      <circle class="cls-14" cx="153.68" cy="39.53" r="2.47"/>
      <circle class="cls-14" cx="161.08" cy="39.53" r="2.47"/>
      <circle class="cls-1" cx="153.68" cy="39.53" r="1.85"/>
      <circle class="cls-1" cx="161.08" cy="39.53" r="1.85"/>
      <circle class="cls-2" cx="154.29" cy="38.92" r=".62"/>
      <circle class="cls-2" cx="161.69" cy="38.92" r=".62"/>
      <path class="cls-19" d="m157.38,42c.46,0,.47-.04.62,0,.31.08.65.37.62.62-.04.27-.49.25-.62.62-.08.24.07.33,0,.62-.07.27-.31.62-.62.62s-.55-.35-.62-.62c-.07-.29.08-.38,0-.62-.13-.37-.58-.35-.62-.62-.03-.24.31-.53.62-.62.14-.04.16,0,.62,0Z"/>
      <path class="cls-14" d="m159.84,42.62c.04-.1,1.84-.01,3.08,1.23,1.65,1.65,1.3,4.31,1.23,4.32-.06,0,.14-2.07-1.23-3.7-1.26-1.5-3.12-1.75-3.08-1.85Z"/>
      <path class="cls-14" d="m159.84,43.23s1.39.85,1.85,2.47c.36,1.27.02,2.47,0,2.47-.02,0,.19-.84,0-1.85-.36-1.92-1.89-3.05-1.85-3.08Z"/>
      <path class="cls-14" d="m155.53,42.62c-.62-.03-1.61.03-2.47.62-1.69,1.15-1.91,3.68-1.85,3.7.05.02.21-1.27,1.23-2.47.92-1.07,2.11-1.58,3.08-1.85Z"/>
      <path class="cls-14" d="m154.91,43.23s-1.15.6-1.85,1.85c-.84,1.5-.67,3.08-.62,3.08.05,0,0-1.12.62-2.47.73-1.6,1.9-2.42,1.85-2.47Z"/>
    </g>
    <path class="cls-4" d="m147,72c-2.25,0-3.7-3-4-5-.27-1.81.25-3.89,1-4,.95-.14,1.59,3,3,3s2.05-3.14,3-3c.75.11,1.27,2.19,1,4-.3,2-1.75,5-4,5Z"/>
  </g>
  <g>
    <path class="cls-18" d="m238,145c-.76,6.24-5.09,10.2-6,11-6.54,5.73-13.08,3.13-31,4-20.27.99-26.17,5.02-32,0-4.03-3.47-6.27-9.74-5-15,2.51-10.41,18.07-13.84,37-18,20.67-4.55,26.32-1.14,28,0,5.03,3.4,9.92,10.39,9,18Z"/>
    <path class="cls-18" d="m181,134c-2.24-1.37-4,.76-12,0-4.46-.43-7.52-.76-9-3-1.17-1.77-.79-3.87-3-6-.38-.37-1.33-1.27-2-1-.59.24-.57,1.24-1,3,0,0-.21.86-1,3-.86,2.33-1.71,2.5-4,6-1.67,2.55-3,5-3,5-.75,1.38-1.09,2.13-2,3-1.04,1-2.3,1.64-3,2-1.64.84-2.7,1.05-3,2-.02.07-.15.51,0,1,.48,1.54,3.27,1.91,4,2,2.55.33,3.19-.52,5,0,1.52.43,2.44,1.43,3,2,2.98,3.02,8.34,6.48,12,8,1.83.76,8.57,3.55,14,1,9.83-4.63,10.63-24.55,5-28Z"/>
    <polygon class="cls-18" points="166.36 162.47 180.12 162.19 172.83 162.92 166.36 162.47"/>
    <polygon class="cls-18" points="167.68 133.87 178.8 132.72 175 135 167.68 133.87"/>
    <path class="cls-18" d="m182,157c-3.51,1.87-2.55,4.84-6,7-2.85,1.78-5.5.48-8,3-.34.34-1.26,1.29-1,2,.27.72,1.64.86,3,1,1.43.15,2.55,0,3,0,2.26-.03,4.19-.71,5-1,4.21-1.48,6.69-4.44,8-6,1.58-1.89,3.82-4.57,3-6-.8-1.4-4.4-1.39-7,0Z"/>
    <path class="cls-18" d="m175,159c.21.89-1.09,1.32-5,5-2.83,2.66-3.32,3.55-5,4-2.08.55-4.67.08-5-1-.23-.73.63-1.61,1-2,1.4-1.44,2.61-1.03,4-2,2.12-1.48,1.2-3.67,3-5,2.24-1.66,6.64-.52,7,1Z"/>
    <path class="cls-18" d="m213,156c-.94,1.4,2.75,3.67,2,7-.46,2.05-2.21,2.78-2,5,.02.27.18,1.71,1,2,1.1.4,2.66-1.57,3-2,.38-.48,1.38-1.85,2-5,.63-3.17.94-4.76,0-6-1.49-1.97-5.19-2.2-6-1Z"/>
    <path class="cls-18" d="m219,153c-.29,3.25,2.84,3.66,3,8,.04,1.2-.07,4.44-1,8-.24.93-.68,2.41,0,3,.6.52,1.75.1,2,0,1.42-.57,2.21-1.96,3-4,1.54-3.95,1.3-5.69,2-8,1.84-6.11,6.62-6.99,6-10-.5-2.43-4.09-4.06-7-4-4.25.08-7.71,3.76-8,7Z"/>
    <path class="cls-18" d="m232,132c1.96,2.32,5.9,2.98,9,2,4.75-1.51,6.5-6.57,7-8,.2-.58,2.35-7.08-1-13-5.14-9.09-17.52-6.71-19-13-1.02-4.33,3.75-10.13,7-10,2.39.09,3.5,3.37,6,3,1.48-.22,2.81-1.63,3-3,.35-2.6-3.39-5.09-6-6-4.81-1.67-11.53.05-15,5-4.18,5.96-2.2,14.52,2,18,3.28,2.72,6.29.98,12,5,3.98,2.8,4.79,5.25,5,6,.13.45,1.16,4.3-1,7-1.72,2.15-4.82,2.76-6,3-2.16.43-3.54.14-4,1-.58,1.09.91,2.89,1,3Z"/>
    <path class="cls-13" d="m155,131c-.13-.61.63-.83,1-2,.5-1.57-.38-2.78,0-3,.38-.22,1.67.74,2,2,.15.56-.03.67,0,2,.03,1.44.25,1.74,0,2-.58.62-2.79-.02-3-1Z"/>
    <path class="cls-13" d="m140,148c.05-.38.74-.41,2-1,1.38-.65,1.45-1.03,2-1,1.16.07,2.51,1.88,2,3-.38.83-1.63.96-2,1-1.23.13-2.16-.46-3-1-.56-.36-1.04-.67-1-1Z"/>
    <path class="cls-16" d="m157,137c-.27.15.45,1.19,0,2-.5.9-2.02.79-2,1,.01.18,1.12.5,2,0,.65-.37,1.21-1.21,1-2-.17-.63-.8-1.11-1-1Z"/>
    <path class="cls-16" d="m152.35,144.85c0-.31,1.25-.2,1.73-1,.53-.88-.32-2.14-.13-2.23.16-.08.99.72,1,1.73,0,.75-.45,1.65-1.23,1.86-.63.17-1.36-.13-1.37-.37Z"/>
    <path class="cls-26" d="m156.41,142c.06-.12.19-.33.43-.47.38-.22.87-.16.9-.04.03.12-.45.25-.43.47.01.17.28.17.47.43.18.24.26.67.04.9s-.65.2-.9.04c-.28-.16-.31-.43-.47-.43-.22,0-.31.49-.43.47-.12-.02-.23-.5-.04-.9.12-.26.31-.4.43-.47Z"/>
    <path class="cls-16" d="m209,152c-3.63,3.63-10.76.87-13,0-2.21-.86-7.84-3.04-8-7-.08-1.91,1.13-4.2,3-5,3.18-1.36,6.67,2.24,8,1,1.17-1.09-1.37-3.98,0-7,.7-1.54,2.35-2.97,4-3,3.57-.07,6.15,6.45,7,10,.69,2.87,1.93,8.07-1,11Z"/>
    <path class="cls-5" d="m159,140c-.14-.09.17-1.2,1-2,.67-.65,1.42-.85,2-1,1.56-.4,3-.13,3,0,0,.16-2.12-.24-4,1-1.33.87-1.84,2.1-2,2Z"/>
    <path class="cls-5" d="m154.92,151.78c-.15.08-.96-.74-1.26-1.85-.24-.9-.05-1.65.11-2.23.41-1.56,1.35-2.68,1.47-2.62.14.08-1.24,1.73-1.08,3.98.11,1.58.93,2.63.77,2.72Z"/>
    <path class="cls-5" d="m160,140c-.05-.06.31-.69,1-1,.93-.42,2-.04,2,0,0,.02-.41-.09-1,0-1.22.19-1.93,1.07-2,1Z"/>
    <path class="cls-5" d="m156.07,145.85c-.08,0-.37.66-.2,1.4.23,1,1.17,1.62,1.2,1.6.02-.02-.32-.27-.6-.8-.58-1.09-.31-2.19-.41-2.2Z"/>
  </g>
</svg>